<svg width="738" height="210" viewBox="0 0 738 210" fill="none" xmlns="http://www.w3.org/2000/svg">
<g clip-path="url(#clip0_1_255)">
<mask id="path-1-inside-1_1_255" fill="white">
<path d="M60 4C62.5729 6.17264 64.49 7.97994 66 11C66 15.95 66 20.9 66 26C89.1 26 112.2 26 136 26C136 20.39 136 14.78 136 9C141 4 141 4 144.5 3.375C148.992 4.17714 150.371 5.28866 153 9C153.6 11.8624 153.93 14.136 154 17C154.041 18.2787 154.083 19.5575 154.125 20.875C154 24 154 24 153 26C153.953 25.9686 154.905 25.9372 155.887 25.9048C159.459 25.7953 163.031 25.727 166.605 25.6704C168.144 25.6404 169.683 25.5997 171.222 25.5474C186.634 25.0371 186.634 25.0371 193.436 30.4504C197.753 34.7274 198.864 38.9742 199.131 44.9227C199.136 46.5503 199.136 46.5503 199.14 48.2108C199.146 49.4613 199.152 50.7117 199.158 52.0001C199.159 53.3781 199.16 54.7562 199.161 56.1343C199.166 57.5916 199.171 59.049 199.176 60.5063C199.189 64.4588 199.196 68.4113 199.2 72.3639C199.203 74.8349 199.207 77.3059 199.212 79.7769C199.225 87.5131 199.235 95.2493 199.239 102.986C199.243 111.907 199.261 120.829 199.29 129.75C199.312 136.653 199.322 143.556 199.323 150.459C199.324 154.579 199.33 158.699 199.348 162.819C199.364 166.694 199.366 170.57 199.358 174.446C199.357 175.865 199.361 177.285 199.371 178.704C199.441 189.377 198.496 196.147 191 204C185.825 207.661 181.681 208.125 175.423 208.14C174.763 208.143 174.104 208.146 173.425 208.149C171.217 208.158 169.01 208.16 166.802 208.161C165.218 208.166 163.635 208.171 162.051 208.176C157.749 208.189 153.447 208.196 149.145 208.2C146.456 208.203 143.768 208.207 141.079 208.212C132.662 208.225 124.245 208.235 115.828 208.239C106.119 208.243 96.4101 208.261 86.7012 208.29C79.192 208.312 71.6827 208.322 64.1734 208.323C59.6907 208.324 55.2081 208.33 50.7254 208.348C46.5064 208.364 42.2877 208.366 38.0688 208.358C36.5241 208.357 34.9793 208.361 33.4347 208.371C16.7225 208.472 16.7225 208.472 9.75786 203.352C8.94962 202.497 8.94962 202.497 8.12505 201.625C7.2936 200.778 7.2936 200.778 6.44536 199.914C3.26709 195.705 2.7474 191.79 2.72589 186.606C2.71592 185.315 2.70594 184.024 2.69567 182.694C2.69477 181.27 2.69411 179.846 2.69365 178.423C2.68603 176.918 2.6776 175.413 2.66843 173.908C2.64651 169.825 2.63769 165.742 2.6326 161.659C2.62895 159.107 2.62271 156.554 2.6156 154.001C2.59111 145.09 2.57806 136.178 2.57451 127.266C2.57088 118.969 2.54098 110.672 2.49911 102.375C2.46438 95.2432 2.44896 88.1119 2.44826 80.9804C2.44747 76.7245 2.43877 72.469 2.41026 68.2132C2.38404 64.2083 2.3819 60.2041 2.39792 56.1992C2.39973 54.7335 2.39308 53.2678 2.3771 51.8022C2.29408 43.6864 2.32384 37.2152 8.00005 31C15.6262 24.0833 24.1996 24.7938 34.0547 25.2676C35.0679 25.3237 36.0811 25.3797 37.125 25.4375C38.1769 25.4897 39.2288 25.5419 40.3125 25.5957C42.8755 25.7238 45.4378 25.8587 48 26C47.8931 25.1428 47.7861 24.2855 47.6758 23.4023C46.4318 11.537 46.4318 11.537 50 6C53.08 3.55725 56.1716 3.45308 60 4ZM19 44C19 52.91 19 61.82 19 71C73.12 71 127.24 71 183 71C182.67 61.76 182.34 52.52 182 43C179.234 41.6169 176.99 41.8879 173.898 41.9023C172.687 41.9056 171.475 41.9088 170.227 41.9121C168.956 41.9205 167.685 41.9289 166.375 41.9375C164.457 41.9443 164.457 41.9443 162.5 41.9512C159.333 41.963 156.167 41.9795 153 42C153.035 42.8082 153.07 43.6165 153.106 44.4492C153.133 45.5179 153.16 46.5865 153.188 47.6875C153.222 48.7432 153.257 49.799 153.293 50.8867C152.938 54.6628 151.7 57.3005 149 60C147.039 60.2031 147.039 60.2031 144.625 60.25C143.834 60.2758 143.042 60.3016 142.227 60.3281C140 60 140 60 137 57C136.505 49.575 136.505 49.575 136 42C112.57 42 89.14 42 65 42C65 45.96 65 49.92 65 54C62 59 62 59 61 60C59.0391 60.2031 59.0391 60.2031 56.625 60.25C55.8336 60.2758 55.0421 60.3016 54.2266 60.3281C52 60 52 60 50.254 58.9648C48.3303 55.9506 48.4261 52.7872 48.3125 49.3125C48.2613 48.2597 48.2613 48.2597 48.209 47.1855C48.1267 45.4576 48.0617 43.7288 48 42C43.5418 41.9422 39.0836 41.9065 34.625 41.875C33.354 41.8582 32.083 41.8415 30.7735 41.8242C28.9559 41.8146 28.9559 41.8146 27.1016 41.8047C25.9809 41.7942 24.8603 41.7837 23.7056 41.7729C20.8503 41.7194 20.8503 41.7194 19 44ZM19 87C18.9588 103.603 18.9175 120.206 18.875 137.312C18.8568 142.558 18.8386 147.804 18.8199 153.208C18.8132 157.904 18.8132 157.904 18.8092 162.599C18.8061 164.693 18.799 166.787 18.7889 168.881C18.7743 172.05 18.7722 175.219 18.773 178.388C18.7658 179.323 18.7586 180.259 18.7512 181.223C18.7539 182.075 18.7567 182.927 18.7595 183.805C18.7577 184.547 18.7558 185.289 18.754 186.053C18.894 188.324 18.894 188.324 21 191C23.8699 191.452 23.8699 191.452 27.308 191.367C27.9624 191.371 28.6168 191.374 29.291 191.377C31.4938 191.385 33.696 191.37 35.8987 191.356C37.4737 191.357 39.0487 191.359 40.6237 191.363C44.9088 191.368 49.1936 191.354 53.4786 191.337C57.9544 191.322 62.4303 191.323 66.9062 191.322C74.4226 191.319 81.939 191.304 89.4554 191.281C99.116 191.252 108.777 191.242 118.437 191.238C126.727 191.234 135.017 191.221 143.307 191.207C145.979 191.203 148.652 191.2 151.324 191.197C155.516 191.193 159.708 191.182 163.899 191.168C165.442 191.163 166.985 191.161 168.528 191.16C170.625 191.158 172.722 191.15 174.819 191.14C176.584 191.136 176.584 191.136 178.384 191.131C180.927 191.297 180.927 191.297 182 190C182.107 188.66 182.147 187.314 182.158 185.969C182.173 184.67 182.173 184.67 182.188 183.345C182.194 182.383 182.199 181.422 182.205 180.431C182.215 179.41 182.225 178.389 182.236 177.337C182.267 174.015 182.292 170.693 182.316 167.371C182.335 165.327 182.354 163.283 182.373 161.238C182.442 153.638 182.502 146.038 182.563 138.438C182.707 121.463 182.851 104.489 183 87C128.88 87 74.76 87 19 87Z"/>
</mask>
<path d="M60 4C62.5729 6.17264 64.49 7.97994 66 11C66 15.95 66 20.9 66 26C89.1 26 112.2 26 136 26C136 20.39 136 14.78 136 9C141 4 141 4 144.5 3.375C148.992 4.17714 150.371 5.28866 153 9C153.6 11.8624 153.93 14.136 154 17C154.041 18.2787 154.083 19.5575 154.125 20.875C154 24 154 24 153 26C153.953 25.9686 154.905 25.9372 155.887 25.9048C159.459 25.7953 163.031 25.727 166.605 25.6704C168.144 25.6404 169.683 25.5997 171.222 25.5474C186.634 25.0371 186.634 25.0371 193.436 30.4504C197.753 34.7274 198.864 38.9742 199.131 44.9227C199.136 46.5503 199.136 46.5503 199.14 48.2108C199.146 49.4613 199.152 50.7117 199.158 52.0001C199.159 53.3781 199.16 54.7562 199.161 56.1343C199.166 57.5916 199.171 59.049 199.176 60.5063C199.189 64.4588 199.196 68.4113 199.2 72.3639C199.203 74.8349 199.207 77.3059 199.212 79.7769C199.225 87.5131 199.235 95.2493 199.239 102.986C199.243 111.907 199.261 120.829 199.29 129.75C199.312 136.653 199.322 143.556 199.323 150.459C199.324 154.579 199.33 158.699 199.348 162.819C199.364 166.694 199.366 170.57 199.358 174.446C199.357 175.865 199.361 177.285 199.371 178.704C199.441 189.377 198.496 196.147 191 204C185.825 207.661 181.681 208.125 175.423 208.14C174.763 208.143 174.104 208.146 173.425 208.149C171.217 208.158 169.01 208.16 166.802 208.161C165.218 208.166 163.635 208.171 162.051 208.176C157.749 208.189 153.447 208.196 149.145 208.2C146.456 208.203 143.768 208.207 141.079 208.212C132.662 208.225 124.245 208.235 115.828 208.239C106.119 208.243 96.4101 208.261 86.7012 208.29C79.192 208.312 71.6827 208.322 64.1734 208.323C59.6907 208.324 55.2081 208.33 50.7254 208.348C46.5064 208.364 42.2877 208.366 38.0688 208.358C36.5241 208.357 34.9793 208.361 33.4347 208.371C16.7225 208.472 16.7225 208.472 9.75786 203.352C8.94962 202.497 8.94962 202.497 8.12505 201.625C7.2936 200.778 7.2936 200.778 6.44536 199.914C3.26709 195.705 2.7474 191.79 2.72589 186.606C2.71592 185.315 2.70594 184.024 2.69567 182.694C2.69477 181.27 2.69411 179.846 2.69365 178.423C2.68603 176.918 2.6776 175.413 2.66843 173.908C2.64651 169.825 2.63769 165.742 2.6326 161.659C2.62895 159.107 2.62271 156.554 2.6156 154.001C2.59111 145.09 2.57806 136.178 2.57451 127.266C2.57088 118.969 2.54098 110.672 2.49911 102.375C2.46438 95.2432 2.44896 88.1119 2.44826 80.9804C2.44747 76.7245 2.43877 72.469 2.41026 68.2132C2.38404 64.2083 2.3819 60.2041 2.39792 56.1992C2.39973 54.7335 2.39308 53.2678 2.3771 51.8022C2.29408 43.6864 2.32384 37.2152 8.00005 31C15.6262 24.0833 24.1996 24.7938 34.0547 25.2676C35.0679 25.3237 36.0811 25.3797 37.125 25.4375C38.1769 25.4897 39.2288 25.5419 40.3125 25.5957C42.8755 25.7238 45.4378 25.8587 48 26C47.8931 25.1428 47.7861 24.2855 47.6758 23.4023C46.4318 11.537 46.4318 11.537 50 6C53.08 3.55725 56.1716 3.45308 60 4ZM19 44C19 52.91 19 61.82 19 71C73.12 71 127.24 71 183 71C182.67 61.76 182.34 52.52 182 43C179.234 41.6169 176.99 41.8879 173.898 41.9023C172.687 41.9056 171.475 41.9088 170.227 41.9121C168.956 41.9205 167.685 41.9289 166.375 41.9375C164.457 41.9443 164.457 41.9443 162.5 41.9512C159.333 41.963 156.167 41.9795 153 42C153.035 42.8082 153.07 43.6165 153.106 44.4492C153.133 45.5179 153.16 46.5865 153.188 47.6875C153.222 48.7432 153.257 49.799 153.293 50.8867C152.938 54.6628 151.7 57.3005 149 60C147.039 60.2031 147.039 60.2031 144.625 60.25C143.834 60.2758 143.042 60.3016 142.227 60.3281C140 60 140 60 137 57C136.505 49.575 136.505 49.575 136 42C112.57 42 89.14 42 65 42C65 45.96 65 49.92 65 54C62 59 62 59 61 60C59.0391 60.2031 59.0391 60.2031 56.625 60.25C55.8336 60.2758 55.0421 60.3016 54.2266 60.3281C52 60 52 60 50.254 58.9648C48.3303 55.9506 48.4261 52.7872 48.3125 49.3125C48.2613 48.2597 48.2613 48.2597 48.209 47.1855C48.1267 45.4576 48.0617 43.7288 48 42C43.5418 41.9422 39.0836 41.9065 34.625 41.875C33.354 41.8582 32.083 41.8415 30.7735 41.8242C28.9559 41.8146 28.9559 41.8146 27.1016 41.8047C25.9809 41.7942 24.8603 41.7837 23.7056 41.7729C20.8503 41.7194 20.8503 41.7194 19 44ZM19 87C18.9588 103.603 18.9175 120.206 18.875 137.312C18.8568 142.558 18.8386 147.804 18.8199 153.208C18.8132 157.904 18.8132 157.904 18.8092 162.599C18.8061 164.693 18.799 166.787 18.7889 168.881C18.7743 172.05 18.7722 175.219 18.773 178.388C18.7658 179.323 18.7586 180.259 18.7512 181.223C18.7539 182.075 18.7567 182.927 18.7595 183.805C18.7577 184.547 18.7558 185.289 18.754 186.053C18.894 188.324 18.894 188.324 21 191C23.8699 191.452 23.8699 191.452 27.308 191.367C27.9624 191.371 28.6168 191.374 29.291 191.377C31.4938 191.385 33.696 191.37 35.8987 191.356C37.4737 191.357 39.0487 191.359 40.6237 191.363C44.9088 191.368 49.1936 191.354 53.4786 191.337C57.9544 191.322 62.4303 191.323 66.9062 191.322C74.4226 191.319 81.939 191.304 89.4554 191.281C99.116 191.252 108.777 191.242 118.437 191.238C126.727 191.234 135.017 191.221 143.307 191.207C145.979 191.203 148.652 191.2 151.324 191.197C155.516 191.193 159.708 191.182 163.899 191.168C165.442 191.163 166.985 191.161 168.528 191.16C170.625 191.158 172.722 191.15 174.819 191.14C176.584 191.136 176.584 191.136 178.384 191.131C180.927 191.297 180.927 191.297 182 190C182.107 188.66 182.147 187.314 182.158 185.969C182.173 184.67 182.173 184.67 182.188 183.345C182.194 182.383 182.199 181.422 182.205 180.431C182.215 179.41 182.225 178.389 182.236 177.337C182.267 174.015 182.292 170.693 182.316 167.371C182.335 165.327 182.354 163.283 182.373 161.238C182.442 153.638 182.502 146.038 182.563 138.438C182.707 121.463 182.851 104.489 183 87C128.88 87 74.76 87 19 87Z" fill="#6335F0" stroke="black" stroke-width="2" mask="url(#path-1-inside-1_1_255)"/>
<path d="M480.938 35.75C482.137 35.7294 483.336 35.7087 484.572 35.6875C493.134 35.6501 501.825 35.8355 508.5 41.8125C511.857 45.6624 512.816 49.3401 513.375 54.375C512.964 58.352 511.843 60.7866 509.875 64.2031C508.781 66.1164 508.781 66.1164 509 69C510.645 70.6876 512.313 72.354 514 74C515.858 79.5727 515.722 85.655 514 91.25C509.248 97.7834 504.923 101.253 496.923 102.656C491.433 103.302 485.958 103.246 480.438 103.188C479.251 103.187 478.064 103.186 476.842 103.186C468.141 103.141 468.141 103.141 467 102C466.901 99.9805 466.872 97.9575 466.871 95.9355C466.867 94.6375 466.864 93.3395 466.861 92.0021C466.863 90.5743 466.865 89.1465 466.867 87.7188C466.867 86.2653 466.866 84.8118 466.864 83.3583C466.863 80.3083 466.865 77.2584 466.87 74.2085C466.875 70.2907 466.872 66.373 466.866 62.4552C466.862 59.4527 466.864 56.4502 466.866 53.4478C466.867 52.0028 466.866 50.5579 466.864 49.1129C466.861 47.0968 466.866 45.0806 466.871 43.0645C466.871 41.915 466.872 40.7655 466.873 39.5812C467.18 33.3513 476.156 35.77 480.938 35.75ZM481 49C481 53.29 481 57.58 481 62C489.122 62.3874 489.122 62.3874 497 61C498.107 58.787 498.196 57.4533 498.25 55C498.276 54.2987 498.302 53.5975 498.328 52.875C498.22 52.2562 498.112 51.6375 498 51C494.263 48.5088 492.256 48.7935 487.813 48.875C486.54 48.893 485.268 48.9111 483.957 48.9297C482.981 48.9529 482.005 48.9761 481 49ZM481 74C481 79.28 481 84.56 481 90C484.31 90.0928 484.31 90.0928 487.688 90.1875C488.929 90.2223 490.17 90.2571 491.449 90.293C495.258 89.9787 497.125 89.5065 500 87C500.677 84.5707 500.677 84.5707 500.438 81.9375C500.416 81.0596 500.394 80.1818 500.371 79.2773C500.196 76.8067 500.196 76.8067 498 75C494.211 73.945 490.603 73.8945 486.688 73.9375C484.811 73.9581 482.934 73.9787 481 74Z" fill="#6335F0"/>
<path d="M397 126C399.084 125.883 401.17 125.799 403.257 125.729C404.418 125.679 405.579 125.629 406.776 125.577C410 126 410 126 412.27 128.008C414.072 130.582 415.541 133.217 417 136C418.118 137.793 419.247 139.58 420.387 141.359C421.49 143.154 422.59 144.951 423.688 146.75C424.795 148.558 425.903 150.365 427.012 152.172C427.491 152.957 427.97 153.741 428.464 154.55C430.254 157.405 432.121 160.203 434 163C433.995 161.915 433.99 160.829 433.984 159.711C433.966 155.699 433.955 151.686 433.945 147.674C433.94 145.935 433.933 144.196 433.925 142.456C433.912 139.962 433.907 137.467 433.902 134.973C433.897 134.19 433.892 133.408 433.887 132.602C433.887 130.734 433.938 128.867 434 127C434.33 126.67 434.66 126.34 435 126C439.29 126 443.58 126 448 126C448 147.78 448 169.56 448 192C436 192 436 192 433.281 189.605C432.4 187.914 432.4 187.914 431.5 186.188C430.791 184.91 430.08 183.634 429.367 182.359C428.997 181.664 428.627 180.968 428.245 180.252C425.907 176.024 423.235 172.001 420.625 167.938C419.615 166.344 418.607 164.749 417.602 163.152C417.172 162.472 416.742 161.791 416.299 161.09C414.84 158.743 413.422 156.37 412 154C411.67 166.54 411.34 179.08 411 192C406.71 192 402.42 192 398 192C397 191 397 191 396.88 188.412C396.882 187.26 396.884 186.107 396.886 184.92C396.887 183.618 396.887 182.317 396.887 180.976C396.892 179.545 396.897 178.115 396.902 176.684C396.904 175.228 396.906 173.772 396.907 172.316C396.91 168.477 396.92 164.639 396.931 160.8C396.942 156.885 396.946 152.971 396.951 149.057C396.962 141.371 396.979 133.686 397 126Z" fill="#6335F0"/>
<path d="M587.438 35.75C589.308 35.7191 589.308 35.7191 591.217 35.6875C599.728 35.6517 607.888 35.871 614.875 41.1875C619.586 47.4222 621.707 52.3642 621.387 60.3164C620.583 65.8908 618.421 69.647 614.375 73.5C612 75 612 75 610 75C611.602 78.0638 613.207 81.1258 614.813 84.1875C615.264 85.0518 615.716 85.9161 616.182 86.8066C617.985 90.2425 619.77 93.6316 621.824 96.9258C623 99 623 99 623 102C620.079 102.838 617.473 103.135 614.438 103.125C613.673 103.128 612.909 103.13 612.121 103.133C610 103 610 103 607 102C605.543 99.4527 604.247 96.9595 603 94.3125C602.657 93.6042 602.314 92.8958 601.961 92.166C601.286 90.7701 600.615 89.3718 599.949 87.9712C599.081 86.1673 598.167 84.385 597.25 82.6055C596 80 596 80 596 78C593.03 78 590.06 78 587 78C587.053 79.0294 587.053 79.0294 587.108 80.0796C587.265 83.1778 587.414 86.2764 587.563 89.375C587.619 90.4552 587.675 91.5355 587.732 92.6484C587.781 93.6797 587.829 94.7109 587.879 95.7734C587.926 96.7265 587.973 97.6796 588.022 98.6616C588 101 588 101 587 103C585.042 103.027 583.083 103.046 581.125 103.062C580.034 103.074 578.944 103.086 577.82 103.098C575 103 575 103 573 102C572.977 93.5423 572.959 85.0847 572.948 76.627C572.943 72.7001 572.936 68.7733 572.925 64.8464C572.914 61.0599 572.908 57.2733 572.905 53.4867C572.903 52.039 572.9 50.5912 572.894 49.1435C572.887 47.1224 572.887 45.1014 572.886 43.0803C572.884 41.9278 572.882 40.7753 572.88 39.5879C573.173 33.2738 582.615 35.7694 587.438 35.75ZM587 49C587 54.61 587 60.22 587 66C590.31 66.0928 590.31 66.0928 593.688 66.1875C594.929 66.2223 596.17 66.2571 597.449 66.293C601.244 65.9799 603.075 65.4042 606 63C607.142 60.3746 607.199 57.8418 607 55C605.918 52.0534 605.918 52.0534 604 50C598.574 48.1912 592.669 48.948 587 49Z" fill="#6335F0"/>
<path d="M283 41C287.081 45.2494 290.894 50.2411 291.125 56.25C291.084 57.1575 291.043 58.065 291 59C286.237 59.9526 281.833 60.0833 277 60C276.818 59.4457 276.636 58.8914 276.449 58.3203C276.198 57.5959 275.946 56.8714 275.688 56.125C275.444 55.4057 275.2 54.6864 274.949 53.9453C274.037 51.6601 274.037 51.6601 271 50C268.393 49.6825 268.393 49.6825 265.562 49.75C264.615 49.7448 263.668 49.7397 262.691 49.7344C259.893 50.0105 258.32 50.4334 256 52C250.486 58.9775 251.254 68.6342 252 77C252.717 79.9895 253.637 82.2195 255 85C255.33 85.99 255.66 86.98 256 88C261.468 90.2781 266.244 90.3275 272 89C274.52 88.0483 274.52 88.0483 276 86C277.288 82.4093 277.288 82.4093 278 79C273.71 79 269.42 79 265 79C265 75.04 265 71.08 265 67C273.91 67 282.82 67 292 67C292.514 88.9455 292.514 88.9455 285.66 96.6172C278.805 102.327 270.74 104.69 262 104C253.356 102.751 247.745 98.4288 242 92C235.057 82.4857 235.452 70.1402 237 59C238.364 50.8658 242.963 45.4494 249 40C259.545 32.7405 272.692 33.7488 283 41Z" fill="#6335F0"/>
<path d="M722 38C730.947 44.3246 735.892 51.3432 737.75 62.0937C738.616 72.1648 738.195 83.2581 732.082 91.625C726.582 98.1381 720.739 103.126 712 104C703.295 104.58 695.897 102.518 689 97C682.276 90.849 679.21 83.4969 678.617 74.4531C678.19 62.8708 679.172 53.3481 686.688 44.0625C695.921 34.4145 710.022 32.2996 722 38ZM697.371 52.3711C692.454 58.2129 692.476 66.3608 692.649 73.6172C693.278 79.6727 695.203 83.9465 699.188 88.5C704.46 91.3119 709.076 91.5047 714.813 90C719.623 86.9815 721.207 83.3789 723 78C724.013 64.803 724.013 64.803 719 53C716.269 50.1209 714.505 49.143 710.688 48.0625C705.671 47.9775 701.269 49.0899 697.371 52.3711Z" fill="#6335F0"/>
<path d="M555 131C561.348 136.488 565.345 144.654 566 153C566.53 164.899 565.466 174.335 558 184C551.216 190.439 544.282 192.879 535 193C525.939 192.162 520.12 188.764 514 182C507.279 173.895 506.444 163.841 507.223 153.731C508.361 142.794 513.516 135.53 521.875 128.625C532.8 122.944 544.876 124.132 555 131ZM527 141C520.82 148.606 521.134 157.637 522 167C523.096 171.384 524.791 174.567 527.688 178C532.835 180.226 537.433 180.437 542.813 178.938C547.532 176.069 549.355 173.475 550.754 168.105C552.41 159.327 552.706 150.716 547.75 142.938C545.262 139.87 542.921 138.751 539 138C534.39 138 531.031 138.765 527 141Z" fill="#6335F0"/>
<path d="M354 36C353.984 42.7958 353.929 49.5904 353.847 56.3857C353.824 58.6939 353.81 61.0022 353.804 63.3105C353.795 66.6426 353.754 69.973 353.707 73.3047C353.713 74.835 353.713 74.835 353.719 76.3962C353.545 85.0583 351.061 92.2528 344.813 98.4375C339.009 102.882 331.6 104.651 324.355 104.344C317.093 103.284 310.359 100.775 305.488 95.1199C300.785 88.4211 300.567 80.1497 300.672 72.25C300.674 71.2701 300.676 70.2901 300.678 69.2805C300.684 67.2301 300.698 65.1797 300.719 63.1294C300.75 59.9807 300.76 56.8325 300.766 53.6836C300.775 51.6849 300.785 49.6862 300.797 47.6875C300.801 46.7449 300.805 45.8022 300.81 44.8311C300.819 43.9625 300.829 43.094 300.839 42.1992C300.849 41.052 300.849 41.052 300.86 39.8816C301 38 301 38 302 36C306.29 36 310.58 36 315 36C315.015 37.2555 315.029 38.5109 315.044 39.8044C315.103 44.4956 315.18 49.1864 315.262 53.8772C315.296 55.9012 315.324 57.9253 315.346 59.9495C315.38 62.8716 315.433 65.793 315.488 68.7148C315.495 69.609 315.501 70.5031 315.508 71.4243C315.643 77.2879 316.442 82.6596 319 88C322.669 90.8054 326.557 89.9593 330.914 89.3867C333.183 89.0157 333.183 89.0157 336 88C338.266 82.3145 338.324 76.787 338.379 70.7266C338.396 69.7622 338.413 68.7979 338.43 67.8043C338.483 64.7446 338.524 61.6849 338.563 58.625C338.606 55.5437 338.653 52.4626 338.705 49.3814C338.737 47.4685 338.764 45.5554 338.786 43.6422C338.799 42.784 338.813 41.9258 338.826 41.0415C338.841 39.904 338.841 39.904 338.855 38.7436C339 37 339 37 340 36C341.973 35.7385 343.954 35.5401 345.938 35.375C347.56 35.2319 347.56 35.2319 349.215 35.0859C352 35 352 35 354 36Z" fill="#6335F0"/>
<path d="M238 126C251.86 126 265.72 126 280 126C281.251 128.501 281.133 130.274 281.125 133.062C281.129 134.41 281.129 134.41 281.133 135.785C281 138 281 138 280 139C277.927 139.088 275.852 139.107 273.777 139.098C272.517 139.094 271.257 139.091 269.959 139.088C268.619 139.08 267.278 139.071 265.938 139.062C264.593 139.057 263.249 139.053 261.904 139.049C258.603 139.037 255.301 139.019 252 139C252 143.29 252 147.58 252 152C253.793 151.988 255.586 151.977 257.434 151.965C259.768 151.955 262.103 151.946 264.438 151.938C265.622 151.929 266.806 151.921 268.025 151.912C269.15 151.909 270.275 151.906 271.434 151.902C272.476 151.897 273.518 151.892 274.592 151.886C277 152 277 152 278 153C278 156.96 278 160.92 278 165C269.42 165 260.84 165 252 165C252 169.62 252 174.24 252 179C261.57 178.67 271.14 178.34 281 178C281 182.29 281 186.58 281 191C279.077 192.923 276.219 192.129 273.661 192.139C272.773 192.137 271.884 192.135 270.969 192.133C270.063 192.134 269.156 192.135 268.223 192.136C266.303 192.136 264.382 192.135 262.462 192.13C259.513 192.125 256.563 192.13 253.613 192.137C251.753 192.136 249.892 192.135 248.031 192.133C246.698 192.136 246.698 192.136 245.339 192.139C239.115 192.115 239.115 192.115 238 191C237.906 188.975 237.883 186.947 237.887 184.92C237.887 183.618 237.887 182.317 237.887 180.976C237.892 179.545 237.897 178.115 237.902 176.684C237.904 175.228 237.906 173.772 237.907 172.316C237.91 168.477 237.92 164.639 237.931 160.8C237.943 156.198 237.948 151.595 237.954 146.993C237.964 139.996 237.983 132.998 238 126Z" fill="#6335F0"/>
<path d="M524 36C537.86 36 551.72 36 566 36C566 40.29 566 44.58 566 49C556.43 49 546.86 49 537 49C537 53.29 537 57.58 537 62C545.25 62 553.5 62 562 62C563.082 66.3268 563.145 69.5671 563 74C562 75 562 75 559.592 75.1135C558.549 75.1083 557.507 75.1031 556.434 75.0977C555.309 75.0944 554.184 75.0912 553.025 75.0879C551.841 75.0795 550.657 75.0711 549.438 75.0625C548.25 75.058 547.062 75.0535 545.838 75.0488C542.892 75.037 539.946 75.0205 537 75C537.084 75.5801 537.168 76.1602 537.254 76.7578C537.356 77.539 537.458 78.3202 537.563 79.125C537.667 79.8907 537.771 80.6564 537.879 81.4453C538 84 538 84 537 90C546.57 90 556.14 90 566 90C566 93.96 566 97.92 566 102C562.066 103.311 558.311 103.143 554.211 103.133C553.352 103.134 552.493 103.135 551.608 103.136C549.794 103.136 547.98 103.135 546.166 103.13C543.379 103.125 540.592 103.13 537.805 103.137C536.044 103.136 534.284 103.135 532.523 103.133C531.685 103.135 530.846 103.137 529.983 103.139C524.115 103.115 524.115 103.115 523 102C522.901 100.016 522.872 98.0293 522.871 96.0432C522.867 94.7684 522.864 93.4936 522.861 92.1802C522.863 90.7777 522.865 89.3752 522.867 87.9727C522.867 86.544 522.866 85.1153 522.864 83.6866C522.863 80.688 522.865 77.6893 522.87 74.6907C522.875 70.8425 522.872 66.9943 522.866 63.1461C522.862 60.1942 522.864 57.2424 522.866 54.2905C522.867 52.8715 522.866 51.4524 522.864 50.0334C522.861 48.051 522.866 46.0686 522.871 44.0862C522.871 42.9567 522.872 41.8272 522.873 40.6635C523 38 523 38 524 36Z" fill="#6335F0"/>
<path d="M386.125 35.9375C387.221 35.9465 388.316 35.9555 389.445 35.9648C390.71 35.9822 390.71 35.9822 392 36C395.151 42.8306 397.883 49.7782 400.512 56.8242C400.925 57.9293 401.339 59.0343 401.765 60.1728C402.633 62.4943 403.5 64.8163 404.365 67.1389C405.688 70.6893 407.021 74.2363 408.354 77.7832C409.198 80.0467 410.043 82.3103 410.887 84.5742C411.285 85.6306 411.683 86.6869 412.092 87.7753C413.843 92.5009 415.464 96.9518 416 102C414.439 102.197 412.876 102.382 411.312 102.562C410.007 102.719 410.007 102.719 408.676 102.879C406 103 406 103 401 102C399.35 97.05 397.7 92.1 396 87C389.07 87 382.14 87 375 87C373.436 91.8889 373.436 91.8889 371.889 96.783C371.315 98.5412 370.659 100.272 370 102C367.116 103.442 364.583 103.094 361.375 103.062C360.186 103.053 358.998 103.044 357.773 103.035C356.401 103.018 356.401 103.018 355 103C355.583 97.3436 357.089 92.5247 359.133 87.2344C359.448 86.4015 359.763 85.5686 360.087 84.7105C361.093 82.0544 362.109 79.4021 363.125 76.75C364.114 74.1507 365.1 71.5506 366.086 68.9503C366.741 67.2266 367.397 65.5035 368.056 63.7811C369.739 59.3687 371.389 54.9473 372.983 50.502C373.3 49.6223 373.617 48.7427 373.944 47.8365C374.548 46.1559 375.145 44.4731 375.736 42.788C378.117 36.1708 379.282 35.8647 386.125 35.9375ZM385 57C384.163 59.2903 383.33 61.5821 382.5 63.875C382.262 64.526 382.023 65.177 381.777 65.8477C380.451 69.3346 380.451 69.3346 380 73C383.63 73 387.26 73 391 73C389.406 67.6389 387.811 62.2927 386 57C385.67 57 385.34 57 385 57Z" fill="#6335F0"/>
<path d="M354.339 125.861C355.672 125.864 355.672 125.864 357.031 125.867C357.938 125.866 358.844 125.865 359.777 125.864C361.698 125.864 363.618 125.865 365.538 125.87C368.487 125.875 371.437 125.87 374.387 125.863C376.247 125.864 378.108 125.865 379.969 125.867C380.857 125.865 381.746 125.863 382.661 125.861C388.885 125.885 388.885 125.885 390 127C390 130.96 390 134.92 390 139C380.43 139 370.86 139 361 139C361 143.29 361 147.58 361 152C363.581 151.983 363.581 151.983 366.215 151.965C368.456 151.955 370.697 151.946 372.938 151.937C374.074 151.929 375.21 151.921 376.381 151.912C377.46 151.909 378.54 151.906 379.652 151.902C381.153 151.894 381.153 151.894 382.683 151.886C385 152 385 152 386 153C386.099 154.831 386.13 156.666 386.125 158.5C386.129 160 386.129 160 386.133 161.531C386 164 386 164 385 165C383.219 165.087 381.435 165.107 379.652 165.098C378.573 165.094 377.493 165.091 376.381 165.088C375.245 165.08 374.108 165.071 372.938 165.062C371.797 165.058 370.657 165.053 369.482 165.049C366.655 165.037 363.827 165.019 361 165C361 169.62 361 174.24 361 179C370.57 179 380.14 179 390 179C390 182.96 390 186.92 390 191C388.077 192.923 385.219 192.129 382.661 192.139C381.773 192.137 380.884 192.135 379.969 192.133C379.063 192.134 378.156 192.135 377.223 192.136C375.303 192.136 373.382 192.135 371.462 192.13C368.513 192.125 365.563 192.13 362.613 192.137C360.753 192.136 358.892 192.135 357.031 192.133C355.698 192.136 355.698 192.136 354.339 192.139C348.115 192.115 348.115 192.115 347 191C346.901 189.011 346.872 187.019 346.871 185.027C346.867 183.749 346.864 182.471 346.861 181.155C346.863 179.749 346.865 178.343 346.867 176.938C346.867 175.506 346.866 174.075 346.864 172.644C346.863 169.641 346.865 166.639 346.87 163.636C346.875 159.778 346.872 155.921 346.866 152.064C346.862 149.108 346.864 146.152 346.866 143.196C346.867 141.773 346.866 140.35 346.864 138.928C346.861 136.943 346.866 134.958 346.871 132.973C346.871 131.841 346.872 130.709 346.873 129.543C347.121 124.587 350.063 125.878 354.339 125.861Z" fill="#6335F0"/>
<path d="M609 128C614.082 131.804 617.072 135.988 619 142C619 143.32 619 144.64 619 146C614.591 147.102 610.516 147.077 606 147C605.056 145.21 604.112 143.419 603.168 141.629C602.01 139.677 602.01 139.677 599 139C594.753 138.768 591.644 138.668 588 141C588.33 143.31 588.66 145.62 589 148C589.61 148.191 590.22 148.382 590.848 148.579C593.632 149.458 596.41 150.354 599.188 151.25C600.147 151.55 601.107 151.851 602.096 152.16C609.422 154.543 614.485 156.945 618.207 164.086C620.651 169.986 620.357 174.965 618.148 180.82C615.214 186.389 610.948 190.041 605 192C596.507 193.618 588.41 193.33 580.688 189.25C576.274 185.555 572.602 181.68 571 176C571 174.35 571 172.7 571 171C575.29 170.34 579.58 169.68 584 169C584.879 171.018 585.758 173.036 586.637 175.055C588.472 177.674 589.928 178.188 593 179C595.905 179.03 595.905 179.03 598.812 178.625C599.788 178.514 600.764 178.403 601.77 178.289C602.506 178.194 603.242 178.098 604 178C604 175.03 604 172.06 604 169C599.747 167.067 595.525 165.516 591.062 164.125C584.463 161.944 579.372 159.431 574.5 154.437C571.994 148.695 571.667 142.506 573.918 136.586C577.206 130.904 581.543 127.559 587.875 125.75C595.344 124.177 602.141 124.515 609 128Z" fill="#6335F0"/>
<path d="M284 126C288.62 126 293.24 126 298 126C299.975 131.21 301.869 136.436 303.664 141.711C304.151 143.134 304.638 144.557 305.125 145.98C305.88 148.192 306.635 150.405 307.39 152.617C308.126 154.774 308.864 156.93 309.602 159.086C309.941 160.083 309.941 160.083 310.287 161.1C311.489 164.613 311.489 164.613 313 168C313.628 166.145 313.628 166.145 314.269 164.252C315.819 159.68 317.372 155.109 318.927 150.538C319.6 148.556 320.272 146.575 320.943 144.593C321.906 141.75 322.873 138.908 323.84 136.066C324.141 135.175 324.442 134.283 324.752 133.364C325.032 132.544 325.313 131.723 325.601 130.877C325.971 129.788 325.971 129.788 326.348 128.677C327 127 327 127 328 126C330.353 125.927 332.708 125.916 335.063 125.938C336.353 125.947 337.643 125.956 338.973 125.965C339.972 125.976 340.971 125.988 342 126C341.402 132.234 339.514 137.684 337.359 143.543C336.995 144.548 336.631 145.553 336.256 146.588C335.486 148.71 334.713 150.83 333.936 152.949C332.761 156.157 331.597 159.368 330.434 162.58C326.837 172.479 323.241 182.355 319 192C316.094 192.125 316.094 192.125 313.188 192.25C312.109 192.296 311.03 192.343 309.918 192.391C307 192 307 192 305.449 190.331C303.822 187.714 302.878 185.245 301.906 182.32C301.521 181.177 301.135 180.034 300.738 178.857C300.329 177.625 299.921 176.394 299.5 175.125C298.624 172.514 297.741 169.905 296.856 167.297C296.627 166.623 296.399 165.95 296.164 165.256C294.477 160.312 292.695 155.408 290.863 150.516C290.607 149.83 290.351 149.144 290.087 148.437C289.084 145.753 288.078 143.07 287.055 140.394C286.348 138.544 285.652 136.69 284.957 134.836C284.555 133.779 284.152 132.723 283.738 131.634C283 129 283 129 284 126Z" fill="#6335F0"/>
<path d="M627 36C643.17 36 659.34 36 676 36C676 40.29 676 44.58 676 49C667.585 49.495 667.585 49.495 659 50C659.005 51.57 659.01 53.14 659.016 54.7576C659.034 60.559 659.045 66.3604 659.055 72.1619C659.06 74.6772 659.067 77.1925 659.075 79.7078C659.088 83.3143 659.093 86.9208 659.098 90.5273C659.103 91.6596 659.108 92.7919 659.113 93.9585C659.113 94.9995 659.113 96.0405 659.114 97.113C659.116 98.0346 659.118 98.9561 659.12 99.9056C659 102 659 102 658 103C653.71 103 649.42 103 645 103C645 85.18 645 67.36 645 49C639.06 49 633.12 49 627 49C627 44.71 627 40.42 627 36Z" fill="#6335F0"/>
<path d="M457 126C463.818 125.975 470.635 125.957 477.453 125.945C479.774 125.94 482.095 125.933 484.417 125.925C487.745 125.912 491.074 125.907 494.402 125.902C495.447 125.897 496.492 125.892 497.568 125.887C498.529 125.887 499.49 125.887 500.48 125.886C501.331 125.884 502.181 125.882 503.057 125.88C505 126 505 126 506 127C506.099 128.831 506.13 130.666 506.125 132.5C506.129 134 506.129 134 506.133 135.531C506 138 506 138 505 139C499.39 139 493.78 139 488 139C488 156.49 488 173.98 488 192C483.71 192 479.42 192 475 192C474 191 474 191 473.88 188.906C473.883 187.523 473.883 187.523 473.886 186.113C473.887 185.072 473.887 184.031 473.887 182.958C473.892 181.826 473.897 180.694 473.902 179.527C473.904 178.375 473.905 177.222 473.907 176.034C473.912 172.335 473.925 168.636 473.938 164.938C473.943 162.437 473.947 159.936 473.951 157.436C473.962 151.29 473.98 145.145 474 139C468.39 139 462.78 139 457 139C457 134.71 457 130.42 457 126Z" fill="#6335F0"/>
<path d="M424.906 35.8672C426.092 35.8698 427.278 35.8723 428.5 35.875C429.686 35.8724 430.872 35.8698 432.094 35.8672C435 36 435 36 436 37C436.093 38.6574 436.117 40.3187 436.114 41.9788C436.113 43.0398 436.113 44.1008 436.113 45.194C436.108 46.3481 436.103 47.5023 436.098 48.6914C436.096 49.8664 436.095 51.0414 436.093 52.2519C436.088 56.0222 436.075 59.7923 436.063 63.5625C436.058 66.1113 436.053 68.6602 436.049 71.209C436.038 77.4727 436.021 83.7363 436 90C437.083 89.9467 437.083 89.9467 438.187 89.8923C441.437 89.7354 444.687 89.5863 447.938 89.4375C449.642 89.3534 449.642 89.3534 451.381 89.2676C452.46 89.2192 453.54 89.1709 454.652 89.1211C455.653 89.074 456.653 89.0268 457.683 88.9783C460 89 460 89 461 90C461.072 92.0196 461.084 94.0417 461.063 96.0625C461.053 97.1672 461.044 98.272 461.035 99.4102C461.024 100.265 461.012 101.119 461 102C457.146 102.202 453.292 102.384 449.438 102.562C447.837 102.647 447.837 102.647 446.205 102.732C440.11 103.005 434.155 102.945 428.067 102.508C427.383 102.459 426.698 102.411 425.993 102.361C424.329 102.244 422.664 102.122 421 102C420.977 93.5423 420.959 85.0847 420.948 76.627C420.943 72.7001 420.936 68.7733 420.925 64.8464C420.914 61.0599 420.908 57.2733 420.905 53.4867C420.903 52.039 420.9 50.5912 420.894 49.1435C420.887 47.1224 420.887 45.1014 420.886 43.0803C420.884 41.9278 420.882 40.7753 420.88 39.5879C421.05 35.9191 421.2 36.0366 424.906 35.8672Z" fill="#6335F0"/>
<path d="M141.5 102.812C142.438 102.798 143.377 102.784 144.344 102.77C147.149 103.013 148.695 103.398 151 105C153.385 108.321 153.268 111.502 153.25 115.5C153.255 116.624 153.26 117.748 153.266 118.906C153.008 121.905 152.678 123.538 151 126C147.408 128.395 144.718 128.367 140.562 128.375C139.244 128.403 137.925 128.432 136.566 128.461C133 128 133 128 130.59 126.164C127.199 121.549 127.64 116.489 128 111C128.953 107.733 129.606 106.394 132 104C135.153 102.914 138.183 102.835 141.5 102.812Z" fill="#6335F0"/>
<path d="M70.0001 105C73.0051 108.005 72.3684 111.353 72.3751 115.375C72.3995 116.143 72.424 116.912 72.4493 117.703C72.4679 121.292 72.3649 123.412 70.4454 126.508C67.039 128.586 64.4679 128.531 60.5001 128.5C58.5355 128.515 58.5355 128.515 56.5313 128.531C52.5344 127.93 51.3679 127.204 49.0001 124C47.173 118.519 47.0946 112.335 49.1876 106.937C54.347 101.422 63.6101 101.515 70.0001 105Z" fill="#6335F0"/>
<path d="M141 144.437C141.712 144.414 142.423 144.39 143.156 144.365C146.807 144.375 148.662 144.713 151.469 147.098C153.331 150.628 153.534 153.02 153.5 157C153.51 158.196 153.521 159.393 153.531 160.625C152.89 164.697 152.146 166.327 149 169C146.095 169.487 143.883 169.659 141 169.562C140.288 169.573 139.577 169.584 138.844 169.596C135.564 169.55 133.331 169.206 130.531 167.465C128.401 164.035 128.415 160.913 128.5 157C128.485 156.288 128.469 155.577 128.453 154.844C128.478 151.56 128.788 149.341 130.531 146.535C133.96 144.403 137.084 144.377 141 144.437Z" fill="#6335F0"/>
<path d="M100 144.5C100.712 144.485 101.423 144.469 102.156 144.453C105.463 144.478 107.659 144.783 110.469 146.566C112.597 149.948 112.531 152.465 112.5 156.438C112.51 157.736 112.521 159.034 112.531 160.371C111.913 164.597 111.28 166.26 108 169C105.095 169.487 102.883 169.659 100 169.562C99.2884 169.573 98.5769 169.584 97.8438 169.596C94.5638 169.55 92.3314 169.206 89.5312 167.465C87.4007 164.035 87.4149 160.913 87.5 157C87.4845 156.288 87.4691 155.577 87.4531 154.844C87.4776 151.559 87.7895 149.339 89.5312 146.531C92.9633 144.403 96.0855 144.415 100 144.5Z" fill="#6335F0"/>
<path d="M102.562 103.125C103.492 103.169 104.421 103.213 105.379 103.258C109.041 104.295 110.09 105.744 112 109C112.531 112.375 112.531 112.375 112.5 116C112.51 117.196 112.521 118.392 112.531 119.625C111.89 123.697 111.146 125.327 108 128C105.095 128.487 102.883 128.659 100 128.562C99.2884 128.573 98.5769 128.584 97.8438 128.596C94.5638 128.55 92.3314 128.206 89.5312 126.465C87.4007 123.035 87.4149 119.913 87.5 116C87.4845 115.288 87.4691 114.577 87.4531 113.844C87.4785 110.447 87.7441 108.363 89.7188 105.562C93.8114 102.759 97.726 102.816 102.562 103.125Z" fill="#6335F0"/>
<path d="M55.75 144.309C57.1673 144.32 58.5846 144.364 60 144.438C61.0673 144.44 61.0673 144.44 62.1562 144.443C65.1356 144.518 67.6923 144.879 70.4688 145.973C73.0093 149.336 72.5772 152.908 72.5 157C72.5155 157.82 72.5309 158.64 72.5469 159.484C72.5086 165.338 72.5086 165.338 70.4375 168.035C67.0454 169.378 64.1424 169.434 60.5 169.438C59.1903 169.457 57.8806 169.476 56.5312 169.496C53 169 53 169 50.5938 167.16C48.079 163.752 47.796 160.815 47.6875 156.688C47.6501 155.763 47.6127 154.839 47.5742 153.887C48.3902 148.355 50.1206 145.347 55.75 144.309Z" fill="#6335F0"/>
<path d="M354.339 125.861C355.672 125.864 355.672 125.864 357.031 125.867C357.938 125.866 358.844 125.865 359.777 125.864C361.698 125.864 363.618 125.865 365.538 125.87C368.487 125.875 371.437 125.87 374.387 125.863C376.247 125.864 378.108 125.865 379.969 125.867C380.857 125.865 381.746 125.863 382.661 125.861C388.885 125.885 388.885 125.885 390 127C390.041 128.666 390.043 130.334 390 132C389.505 130.02 389.505 130.02 389 128C375.8 128 362.6 128 349 128C349 148.46 349 168.92 349 190C361.87 190 374.74 190 388 190C387.505 188.02 387.505 188.02 387 186C387.33 184.35 387.66 182.7 388 181C378.76 181 369.52 181 360 181C360 175.06 360 169.12 360 163C368.58 163 377.16 163 386 163C385.505 163.99 385.505 163.99 385 165C377.08 165 369.16 165 361 165C361 169.62 361 174.24 361 179C370.57 179 380.14 179 390 179C390 182.96 390 186.92 390 191C388.077 192.923 385.219 192.129 382.661 192.139C381.773 192.137 380.884 192.135 379.969 192.133C379.063 192.134 378.156 192.135 377.223 192.136C375.303 192.136 373.382 192.135 371.462 192.13C368.513 192.125 365.563 192.13 362.613 192.137C360.753 192.136 358.892 192.135 357.031 192.133C355.698 192.136 355.698 192.136 354.339 192.139C348.115 192.115 348.115 192.115 347 191C346.901 189.011 346.872 187.019 346.871 185.027C346.867 183.749 346.864 182.471 346.861 181.155C346.863 179.749 346.865 178.343 346.867 176.938C346.867 175.506 346.866 174.075 346.864 172.644C346.863 169.641 346.865 166.639 346.87 163.636C346.875 159.778 346.872 155.921 346.866 152.064C346.862 149.108 346.864 146.152 346.866 143.196C346.867 141.773 346.866 140.35 346.864 138.928C346.861 136.943 346.866 134.958 346.871 132.973C346.871 131.841 346.872 130.709 346.873 129.543C347.121 124.587 350.063 125.878 354.339 125.861Z" fill="#6335F0"/>
<path d="M457 126C463.818 125.975 470.635 125.957 477.453 125.945C479.774 125.94 482.095 125.933 484.417 125.925C487.745 125.912 491.074 125.907 494.402 125.902C495.447 125.897 496.492 125.892 497.568 125.887C498.529 125.887 499.49 125.887 500.48 125.886C501.331 125.884 502.181 125.882 503.057 125.88C505 126 505 126 506 127C506.099 128.831 506.13 130.666 506.125 132.5C506.129 134 506.129 134 506.133 135.531C506 138 506 138 505 139C499.39 139 493.78 139 488 139C488 156.49 488 173.98 488 192C483.71 192 479.42 192 475 192C475.33 191.34 475.66 190.68 476 190C479.3 190 482.6 190 486 190C486 172.51 486 155.02 486 137C491.94 137 497.88 137 504 137C504 134.03 504 131.06 504 128C488.49 128 472.98 128 457 128C457 127.34 457 126.68 457 126Z" fill="#6335F0"/>
<path d="M397 126C401.29 126 405.58 126 410 126C410.66 127.32 411.32 128.64 412 130C411.34 129.67 410.68 129.34 410 129C406.37 128.67 402.74 128.34 399 128C399 148.46 399 168.92 399 190C402.63 190 406.26 190 410 190C410 176.47 410 162.94 410 149C410.33 149.66 410.66 150.32 411 151C411.66 151 412.32 151 413 151C412.67 151.99 412.34 152.98 412 154C411.846 156.874 411.743 159.729 411.684 162.605C411.663 163.445 411.642 164.284 411.621 165.149C411.555 167.828 411.496 170.508 411.438 173.188C411.394 175.005 411.351 176.822 411.307 178.639C411.2 183.092 411.098 187.546 411 192C408.854 192.027 406.708 192.046 404.563 192.062C403.368 192.074 402.173 192.086 400.941 192.098C398 192 398 192 397 191C396.906 188.975 396.883 186.947 396.887 184.92C396.887 183.618 396.887 182.317 396.887 180.976C396.892 179.545 396.897 178.115 396.902 176.684C396.904 175.228 396.906 173.772 396.907 172.316C396.91 168.477 396.92 164.639 396.931 160.8C396.942 156.885 396.946 152.971 396.951 149.057C396.962 141.371 396.98 133.686 397 126Z" fill="#6335F0"/>
<path d="M424.906 35.8672C426.092 35.8698 427.278 35.8723 428.5 35.875C429.686 35.8724 430.872 35.8698 432.094 35.8672C435 36 435 36 436 37C436.093 38.6574 436.117 40.3187 436.114 41.9788C436.113 43.0398 436.113 44.1008 436.113 45.194C436.108 46.3481 436.103 47.5023 436.098 48.6914C436.096 49.8664 436.095 51.0414 436.093 52.2519C436.088 56.0222 436.075 59.7923 436.063 63.5625C436.058 66.1113 436.053 68.6602 436.049 71.209C436.038 77.4727 436.021 83.7363 436 90C435.67 90 435.34 90 435 90C435 72.84 435 55.68 435 38C431.04 38 427.08 38 423 38C423 58.79 423 79.58 423 101C426.96 101 430.92 101 435 101C435 101.66 435 102.32 435 103C428.07 102.505 428.07 102.505 421 102C420.977 93.5423 420.959 85.0847 420.948 76.627C420.943 72.7001 420.936 68.7733 420.925 64.8464C420.914 61.0599 420.908 57.2733 420.905 53.4867C420.903 52.039 420.9 50.5912 420.894 49.1435C420.887 47.1224 420.887 45.1014 420.886 43.0803C420.884 41.9278 420.882 40.7753 420.88 39.5879C421.05 35.9191 421.2 36.0366 424.906 35.8672Z" fill="#6335F0"/>
<path d="M536 47C536.99 47 537.98 47 539 47C539 47.66 539 48.32 539 49C538.34 49 537.68 49 537 49C537 53.29 537 57.58 537 62C545.25 62 553.5 62 562 62C563.082 66.3268 563.145 69.5671 563 74C562 75 562 75 559.592 75.1135C558.549 75.1083 557.507 75.1031 556.434 75.0977C555.309 75.0944 554.184 75.0912 553.025 75.0879C551.841 75.0795 550.657 75.0711 549.438 75.0625C548.25 75.058 547.062 75.0535 545.838 75.0488C542.892 75.037 539.946 75.0205 537 75C537.084 75.5801 537.168 76.1602 537.254 76.7578C537.356 77.539 537.458 78.3202 537.562 79.125C537.667 79.8907 537.771 80.6564 537.879 81.4453C538 84 538 84 537 90C546.57 90 556.14 90 566 90C566 93.96 566 97.92 566 102C562.578 103.141 559.913 103.098 556.312 103.062C554.543 103.049 554.543 103.049 552.738 103.035C551.835 103.024 550.931 103.012 550 103C549.67 102.34 549.34 101.68 549 101C554.28 101 559.56 101 565 101C565 97.7 565 94.4 565 91C555.43 91 545.86 91 536 91C536 85.06 536 79.12 536 73C544.25 73 552.5 73 561 73C561 70.03 561 67.06 561 64C552.75 64 544.5 64 536 64C536 58.39 536 52.78 536 47Z" fill="#6335F0"/>
<path d="M280 129C280.33 129 280.66 129 281 129C281.027 130.479 281.046 131.958 281.062 133.438C281.074 134.261 281.086 135.085 281.098 135.934C281 138 281 138 280 139C277.927 139.088 275.852 139.107 273.777 139.098C272.517 139.094 271.257 139.091 269.959 139.088C268.618 139.08 267.278 139.071 265.938 139.062C264.593 139.057 263.249 139.053 261.904 139.049C258.603 139.037 255.301 139.019 252 139C252 143.29 252 147.58 252 152C253.793 151.988 255.586 151.977 257.434 151.965C259.768 151.955 262.103 151.946 264.438 151.938C266.214 151.925 266.214 151.925 268.025 151.912C269.15 151.909 270.275 151.906 271.434 151.902C272.476 151.897 273.518 151.892 274.592 151.886C277 152 277 152 278 153C278.144 157.002 278.042 160.994 278 165C270.41 165 262.82 165 255 165C259.5 162.75 259.5 162.75 263.109 162.805C263.863 162.811 264.618 162.818 265.395 162.824C266.172 162.841 266.949 162.858 267.75 162.875C268.939 162.889 268.939 162.889 270.152 162.902C272.102 162.926 274.051 162.962 276 163C276 160.03 276 157.06 276 154C267.75 154 259.5 154 251 154C251 148.39 251 142.78 251 137C260.24 137 269.48 137 279 137C279 134.69 279 132.38 279 130C279.33 129.67 279.66 129.34 280 129Z" fill="#6335F0"/>
<path d="M587.438 35.75C589.308 35.7191 589.308 35.7191 591.217 35.6875C598.437 35.6571 605.364 35.8459 612 39C612.495 39.99 612.495 39.99 613 41C610.69 40.34 608.38 39.68 606 39C595.77 38.67 585.54 38.34 575 38C575 59.12 575 80.24 575 102C574.34 102 573.68 102 573 102C572.977 93.5423 572.959 85.0847 572.948 76.627C572.943 72.7001 572.936 68.7733 572.925 64.8464C572.914 61.0599 572.908 57.2733 572.905 53.4867C572.903 52.039 572.9 50.5912 572.894 49.1435C572.887 47.1224 572.887 45.1014 572.886 43.0803C572.884 41.9278 572.882 40.7753 572.88 39.5879C573.173 33.2738 582.615 35.7694 587.438 35.75Z" fill="#6335F0"/>
<path d="M435 126C439.29 126 443.58 126 448 126C448 147.78 448 169.56 448 192C444.04 192 440.08 192 436 192C435.01 190.35 434.02 188.7 433 187C433.99 187.33 434.98 187.66 436 188C436 188.66 436 189.32 436 190C439.63 190 443.26 190 447 190C446.649 188.783 446.299 187.566 445.938 186.312C445.211 183.792 444.946 182.27 445.466 179.677C445.993 177.033 446.157 174.626 446.205 171.934C446.225 170.954 446.245 169.973 446.266 168.963C446.282 167.917 446.299 166.871 446.316 165.793C446.348 164.172 446.348 164.172 446.379 162.519C446.445 159.075 446.504 155.631 446.562 152.188C446.606 149.85 446.649 147.512 446.693 145.174C446.8 139.449 446.902 133.725 447 128C443.37 128 439.74 128 436 128C436.012 129.053 436.023 130.106 436.035 131.191C436.107 140.847 435.785 150.374 435 160C434.67 160 434.34 160 434 160C433.975 155.319 433.957 150.637 433.945 145.956C433.94 144.362 433.933 142.768 433.925 141.175C433.912 138.888 433.907 136.602 433.902 134.316C433.897 133.6 433.892 132.883 433.887 132.145C433.887 130.429 433.938 128.714 434 127C434.33 126.67 434.66 126.34 435 126Z" fill="#6335F0"/>
<path d="M657 48C658.65 48 660.3 48 662 48C661.01 48.66 660.02 49.32 659 50C658.569 52.2922 658.569 52.2922 658.675 54.9846C658.679 56.0223 658.682 57.06 658.686 58.1292C658.704 59.2531 658.723 60.3771 658.742 61.5352C658.749 62.6841 658.755 63.8331 658.762 65.017C658.786 68.6991 658.829 72.3806 658.875 76.0625C658.91 79.7479 658.941 83.4333 658.966 87.1188C658.983 89.4158 659.007 91.7128 659.036 94.0098C659.046 95.0443 659.056 96.0789 659.066 97.1448C659.077 98.0603 659.088 98.9758 659.1 99.9191C659 102 659 102 658 103C653.665 103.144 649.338 103.042 645 103C645 96.73 645 90.46 645 84C645.33 84 645.66 84 646 84C646 89.61 646 95.22 646 101C649.63 101 653.26 101 657 101C657 83.51 657 66.02 657 48Z" fill="#6335F0"/>
<path d="M388 134C388.66 134 389.32 134 390 134C390 135.65 390 137.3 390 139C380.43 139 370.86 139 361 139C361 143.29 361 147.58 361 152C363.581 151.983 363.581 151.983 366.215 151.965C368.456 151.955 370.697 151.946 372.938 151.938C374.074 151.929 375.21 151.921 376.381 151.912C377.46 151.909 378.54 151.906 379.652 151.902C381.153 151.894 381.153 151.894 382.683 151.886C385 152 385 152 386 153C386.072 154.519 386.084 156.042 386.063 157.562C386.054 158.389 386.044 159.215 386.035 160.066C386.024 160.704 386.012 161.343 386 162C385.34 162 384.68 162 384 162C384 159.36 384 156.72 384 154C383.309 154.005 382.617 154.01 381.905 154.016C378.791 154.037 375.677 154.05 372.563 154.062C371.474 154.071 370.385 154.079 369.264 154.088C368.229 154.091 367.195 154.094 366.129 154.098C365.171 154.103 364.212 154.108 363.225 154.114C361 154 361 154 360 153C359.927 150.301 359.908 147.635 359.938 144.938C359.958 142.318 359.979 139.699 360 137C369.24 137 378.48 137 388 137C388 136.01 388 135.02 388 134Z" fill="#6335F0"/>
<path d="M331.16 125.902C333.092 125.92 333.092 125.92 335.062 125.938C336.353 125.947 337.643 125.956 338.973 125.965C339.972 125.976 340.971 125.988 342 126C341.408 131.942 339.713 137.077 337.621 142.652C337.29 143.552 336.958 144.453 336.616 145.38C335.563 148.235 334.501 151.086 333.438 153.938C332.719 155.881 332.001 157.824 331.283 159.768C329.529 164.514 327.767 169.258 326 174C324.774 169.927 325.508 167.779 326.984 163.766C327.425 162.551 327.866 161.337 328.32 160.086C328.797 158.807 329.273 157.529 329.75 156.25C330.212 154.987 330.673 153.724 331.133 152.461C332.981 147.407 334.86 142.365 336.754 137.328C337.91 134.239 338.981 131.136 340 128C336.04 128 332.08 128 328 128C327.898 128.971 327.796 129.941 327.691 130.941C327.041 135.493 325.525 139.64 323.938 143.938C323.656 144.717 323.374 145.496 323.084 146.299C322.395 148.201 321.699 150.101 321 152C320.34 152 319.68 152 319 152C320.754 145.939 322.647 139.928 324.625 133.938C324.843 133.27 325.061 132.603 325.286 131.916C327.246 126.023 327.246 126.023 331.16 125.902Z" fill="#6335F0"/>
<path d="M457 137C463.27 137 469.54 137 476 137C476 154.82 476 172.64 476 191C475.34 191 474.68 191 474 191C474 173.84 474 156.68 474 139C468.39 139 462.78 139 457 139C457 138.34 457 137.68 457 137Z" fill="#6335F0"/>
<path d="M354 36C353.908 42.887 353.8 49.7737 353.683 56.6604C353.644 59.0028 353.609 61.3452 353.578 63.6877C353.532 67.0564 353.474 70.4246 353.414 73.793C353.397 75.362 353.397 75.362 353.379 76.9627C353.359 77.9433 353.339 78.924 353.319 79.9343C353.306 80.7937 353.292 81.6531 353.278 82.5385C352.966 85.2989 352.133 87.4751 351 90C350.104 86.9535 349.903 84.3087 349.978 81.1396C349.998 80.179 350.018 79.2183 350.039 78.2285C350.066 77.1992 350.093 76.1699 350.121 75.1094C350.145 74.0496 350.168 72.9899 350.193 71.898C350.269 68.5152 350.353 65.1326 350.438 61.75C350.491 59.4557 350.543 57.1615 350.596 54.8672C350.725 49.2446 350.861 43.6223 351 38C347.04 38 343.08 38 339 38C339.33 37.34 339.66 36.68 340 36C342.652 35.5508 342.652 35.5508 345.938 35.3125C347.56 35.1829 347.56 35.1829 349.215 35.0508C352 35 352 35 354 36Z" fill="#6335F0"/>
<path d="M523 63C523.66 63 524.32 63 525 63C525 75.54 525 88.08 525 101C531.93 101 538.86 101 546 101C542.867 103.089 542.149 103.249 538.586 103.23C537.743 103.229 536.9 103.227 536.031 103.225C535.155 103.212 534.278 103.2 533.375 103.188C532.491 103.187 531.606 103.186 530.695 103.186C524.14 103.14 524.14 103.14 523 102C522.911 99.1157 522.885 96.2554 522.902 93.3711C522.904 92.5069 522.905 91.6426 522.907 90.7522C522.912 87.9806 522.925 85.2091 522.937 82.4375C522.942 80.5632 522.947 78.6888 522.951 76.8145C522.962 72.2096 522.979 67.6048 523 63Z" fill="#6335F0"/>
<path d="M360 163C368.58 163 377.16 163 386 163C385.67 163.66 385.34 164.32 385 165C377.08 165 369.16 165 361 165C361 169.62 361 174.24 361 179C370.57 179 380.14 179 390 179C390 187 390 187 388 190C386.774 186.322 387.157 185.216 388 181C378.76 181 369.52 181 360 181C360 175.06 360 169.12 360 163Z" fill="#6335F0"/>
<path d="M280 178C280.33 178 280.66 178 281 178C281.027 180.146 281.046 182.292 281.063 184.438C281.074 185.632 281.086 186.827 281.098 188.059C281 191 281 191 280 192C276.982 192.101 273.987 192.14 270.969 192.133C270.063 192.134 269.156 192.135 268.223 192.136C266.303 192.136 264.382 192.135 262.462 192.13C259.513 192.125 256.563 192.13 253.613 192.137C251.753 192.136 249.892 192.135 248.031 192.133C246.698 192.136 246.698 192.136 245.339 192.139C239.115 192.115 239.115 192.115 238 191C237.928 189.481 237.916 187.958 237.938 186.438C237.947 185.611 237.956 184.785 237.965 183.934C237.976 183.296 237.988 182.657 238 182C238.33 182 238.66 182 239 182C239 184.64 239 187.28 239 190C252.2 190 265.4 190 279 190C279 186.37 279 182.74 279 179C279.33 178.67 279.66 178.34 280 178Z" fill="#6335F0"/>
<path d="M354.339 125.861C355.672 125.864 355.672 125.864 357.031 125.867C357.938 125.866 358.844 125.865 359.777 125.864C361.698 125.864 363.618 125.865 365.538 125.87C368.487 125.875 371.437 125.87 374.387 125.863C376.247 125.864 378.108 125.865 379.969 125.867C380.857 125.865 381.746 125.863 382.661 125.861C388.885 125.885 388.885 125.885 390 127C390.041 128.666 390.043 130.334 390 132C389.505 130.02 389.505 130.02 389 128C375.8 128 362.6 128 349 128C349 135.59 349 143.18 349 151C348.67 151 348.34 151 348 151C347.804 147.021 347.62 143.042 347.438 139.062C347.381 137.926 347.325 136.79 347.268 135.619C347.219 134.54 347.171 133.46 347.121 132.348C347.074 131.347 347.027 130.347 346.978 129.317C347.023 124.534 350.365 125.876 354.339 125.861Z" fill="#6335F0"/>
<path d="M524 36C537.86 36 551.72 36 566 36C566 39.3 566 42.6 566 46C564 42 564 42 564.375 39.75C564.581 39.1725 564.787 38.595 565 38C563.763 38.2512 563.763 38.2512 562.501 38.5076C558.616 39.054 554.882 39.027 550.977 38.8789C550.23 38.8553 549.484 38.8317 548.715 38.8074C546.352 38.7313 543.988 38.647 541.625 38.5625C540.014 38.5092 538.404 38.4565 536.793 38.4043C532.862 38.2758 528.931 38.1399 525 38C525 40.31 525 42.62 525 45C524.01 45.495 524.01 45.495 523 46C522.875 38.25 522.875 38.25 524 36Z" fill="#6335F0"/>
<path d="M238 126C251.86 126 265.72 126 280 126C280 126.66 280 127.32 280 128C266.8 128 253.6 128 240 128C240.33 129.65 240.66 131.3 241 133C240.062 136.812 240.062 136.812 239 140C238.67 140 238.34 140 238 140C238 135.38 238 130.76 238 126Z" fill="#6335F0"/>
<path d="M339 38C339.99 38.33 340.98 38.66 342 39C342.234 49.8999 341.952 60.6885 341.125 71.5625C341.047 72.6626 340.968 73.7628 340.887 74.8962C340.803 75.9218 340.719 76.9473 340.633 78.0039C340.559 78.9199 340.486 79.8358 340.411 80.7795C340 83 340 83 338 85C338.33 69.49 338.66 53.98 339 38Z" fill="#6335F0"/>
<path d="M479 73C484.28 73 489.56 73 495 73C495 73.66 495 74.32 495 75C488.07 74.505 488.07 74.505 481 74C481 79.28 481 84.56 481 90C490.434 90.1686 490.434 90.1686 499 87C499.699 84.8146 499.699 84.8146 499.75 82.375C499.807 81.5577 499.863 80.7405 499.922 79.8984C499.948 79.272 499.973 78.6455 500 78C500.33 78 500.66 78 501 78C501.108 79.6027 501.186 81.2075 501.25 82.8125C501.296 83.7058 501.343 84.5991 501.391 85.5195C501 88 501 88 499.215 89.7461C492.825 93.3638 487.002 93.1994 480 92C478.299 85.2672 477.892 79.8675 479 73Z" fill="#6335F0"/>
<path d="M280 129C280.33 129 280.66 129 281 129C281.027 130.479 281.046 131.958 281.062 133.438C281.074 134.261 281.086 135.085 281.098 135.934C281 138 281 138 280 139C277.927 139.088 275.852 139.107 273.777 139.098C272.517 139.094 271.257 139.091 269.959 139.088C268.618 139.08 267.278 139.071 265.938 139.062C264.593 139.057 263.249 139.053 261.904 139.049C258.603 139.037 255.301 139.019 252 139C252 143.62 252 148.24 252 153C252.99 153.33 253.98 153.66 255 154C253.68 154 252.36 154 251 154C251 148.39 251 142.78 251 137C260.24 137 269.48 137 279 137C279 134.69 279 132.38 279 130C279.33 129.67 279.66 129.34 280 129Z" fill="#6335F0"/>
<path d="M251 163C253.64 163 256.28 163 259 163C256.353 164.461 255.106 165 252 165C252 169.62 252 174.24 252 179C260.58 179 269.16 179 278 179C278 179.99 278 180.98 278 182C275 182.027 272 182.047 269 182.062C268.161 182.071 267.322 182.079 266.457 182.088C265.626 182.091 264.794 182.094 263.938 182.098C262.806 182.106 262.806 182.106 261.652 182.114C258.085 181.961 254.543 181.443 251 181C251 175.06 251 169.12 251 163Z" fill="#6335F0"/>
<path d="M284 126C288.62 126 293.24 126 298 126C300.187 131.758 302.27 137.542 304.25 143.375C304.531 144.181 304.812 144.986 305.102 145.816C305.492 146.971 305.492 146.971 305.891 148.148C306.247 149.188 306.247 149.188 306.61 150.248C307 152 307 152 306 154C303.374 148.455 301.191 142.875 299.25 137.062C299.027 136.4 298.805 135.737 298.575 135.054C297 130.259 297 130.259 297 128C292.38 128.33 287.76 128.66 283 129C283.33 128.01 283.66 127.02 284 126Z" fill="#6335F0"/>
<path d="M361 152C364.979 151.971 368.958 151.953 372.938 151.938C374.074 151.929 375.21 151.921 376.381 151.912C377.46 151.909 378.54 151.906 379.652 151.902C381.153 151.894 381.153 151.894 382.683 151.886C385 152 385 152 386 153C386.072 154.519 386.084 156.042 386.062 157.562C386.053 158.389 386.044 159.215 386.035 160.066C386.024 160.704 386.012 161.343 386 162C385.34 162 384.68 162 384 162C384 159.36 384 156.72 384 154C376.41 154 368.82 154 361 154C361 153.34 361 152.68 361 152Z" fill="#6335F0"/>
<path d="M637 47C640.3 47 643.6 47 647 47C646.67 58.55 646.34 70.1 646 82C645.67 82 645.34 82 645 82C645 71.11 645 60.22 645 49C642.36 49 639.72 49 637 49C637 48.34 637 47.68 637 47Z" fill="#6335F0"/>
<path d="M459 89C459.66 89.33 460.32 89.66 461 90C461 93.96 461 97.92 461 102C457.375 102.221 453.751 102.427 450.125 102.625C449.092 102.689 448.06 102.754 446.996 102.82C445.517 102.898 445.517 102.898 444.008 102.977C443.097 103.029 442.185 103.081 441.247 103.135C439 103 439 103 437 101C437.56 100.985 438.12 100.971 438.697 100.956C441.236 100.881 443.774 100.785 446.312 100.688C447.194 100.665 448.075 100.642 448.982 100.619C449.83 100.584 450.678 100.548 451.551 100.512C452.331 100.486 453.111 100.459 453.915 100.432C456.485 99.8995 457.406 99.0508 459 97C459.361 94.9464 459.361 94.9464 459.188 92.8125C459.126 91.5544 459.064 90.2962 459 89Z" fill="#6335F0"/>
<path d="M238 157C238.66 157 239.32 157 240 157C241.211 164.803 240.725 172.156 240 180C239.34 180 238.68 180 238 180C238 172.41 238 164.82 238 157Z" fill="#6335F0"/>
<path d="M500 78C500.33 78 500.66 78 501 78C501.108 79.6027 501.186 81.2075 501.25 82.8125C501.296 83.7058 501.343 84.5991 501.391 85.5195C501 88 501 88 499.215 89.7461C492.825 93.3638 487.002 93.1994 480 92C480 91.34 480 90.68 480 90C481.036 89.951 482.073 89.902 483.141 89.8516C484.51 89.7765 485.88 89.701 487.25 89.625C487.932 89.5941 488.614 89.5631 489.316 89.5312C494.515 89.3107 494.515 89.3107 499 87C499.699 84.8146 499.699 84.8146 499.75 82.375C499.807 81.5577 499.863 80.7405 499.922 79.8984C499.948 79.272 499.973 78.6455 500 78Z" fill="#6335F0"/>
<path d="M523 96C523.66 97.32 524.32 98.64 525 100C531.93 100.33 538.86 100.66 546 101C542.867 103.089 542.149 103.249 538.586 103.23C537.743 103.229 536.9 103.227 536.031 103.225C535.155 103.212 534.278 103.2 533.375 103.188C532.491 103.187 531.606 103.186 530.695 103.186C524.14 103.14 524.14 103.14 523 102C522.959 100 522.957 97.9995 523 96Z" fill="#6335F0"/>
<path d="M197 101C197.66 101 198.32 101 199 101C198.67 113.87 198.34 126.74 198 140C197.67 140 197.34 140 197 140C196.832 134.928 196.672 129.856 196.518 124.784C196.464 123.058 196.409 121.333 196.352 119.607C196.27 117.128 196.195 114.648 196.121 112.168C196.094 111.396 196.067 110.624 196.039 109.829C195.949 106.586 195.965 104.105 197 101Z" fill="#6335F0"/>
<path d="M289 51C291 53 291 53 291.125 56.125C291.084 57.0738 291.043 58.0225 291 59C286.237 59.9526 281.833 60.0833 277 60C276.34 57.36 275.68 54.72 275 52C275.66 52 276.32 52 277 52C277.33 54.31 277.66 56.62 278 59C282.95 57.515 282.95 57.515 288 56C288.33 54.35 288.66 52.7 289 51Z" fill="#6335F0"/>
<path d="M587 147C590.757 148.231 594.504 149.488 598.25 150.75C599.313 151.098 600.377 151.446 601.473 151.805C602.497 152.153 603.522 152.501 604.578 152.859C605.521 153.174 606.463 153.488 607.435 153.812C610.273 155.126 611.933 156.678 614 159C611.062 158.625 611.062 158.625 608 158C607.67 157.34 607.34 156.68 607 156C605.093 155.208 605.093 155.208 602.781 154.598C601.932 154.347 601.082 154.096 600.207 153.838C598.403 153.321 596.599 152.808 594.793 152.299C593.943 152.047 593.094 151.795 592.219 151.535C591.434 151.312 590.65 151.089 589.842 150.86C589.234 150.576 588.626 150.292 588 150C587.67 149.01 587.34 148.02 587 147Z" fill="#6335F0"/>
<path d="M586 46C589.96 46.33 593.92 46.66 598 47C596 49 596 49 593.836 49.1953C591.557 49.1302 589.279 49.0651 587 49C587 54.61 587 60.22 587 66C586.67 66 586.34 66 586 66C586 59.4 586 52.8 586 46Z" fill="#6335F0"/>
<path d="M382 62C383.479 66.4362 381.748 68.7341 380 73C385.94 72.505 385.94 72.505 392 72C392 72.66 392 73.32 392 74C388.851 75.0498 386.612 75.1013 383.312 75.0625C382.319 75.0535 381.325 75.0445 380.301 75.0352C379.162 75.0178 379.162 75.0178 378 75C378.285 73.5819 378.578 72.1656 378.875 70.75C379.037 69.9611 379.2 69.1722 379.367 68.3594C379.992 66.0317 380.848 64.1097 382 62Z" fill="#6335F0"/>
<path d="M564 44C566 46 566 46 566 49C557.42 49 548.84 49 540 49C540 48.67 540 48.34 540 48C547.83 47.2023 555.196 46.855 563 48C563.33 46.68 563.66 45.36 564 44Z" fill="#6335F0"/>
<path d="M603 91C606.092 93.5296 606.909 96.2245 608 100C611.3 100.33 614.6 100.66 618 101C617.67 101.66 617.34 102.32 617 103C610.375 103.125 610.375 103.125 607 102C605.832 100.004 605.832 100.004 604.812 97.5625C604.468 96.7594 604.124 95.9563 603.77 95.1289C603 93 603 93 603 91Z" fill="#6335F0"/>
<path d="M385 54C385.66 54 386.32 54 387 54C387.676 55.8925 388.341 57.7892 389 59.6875C389.371 60.7432 389.743 61.799 390.125 62.8867C390.939 65.7836 391.177 68.017 391 71C389.29 68.4347 388.096 66.1204 386.875 63.3125C386.522 62.5043 386.169 61.696 385.805 60.8633C385.406 59.941 385.406 59.941 385 59C384.34 59.99 383.68 60.98 383 62C383.875 55.125 383.875 55.125 385 54Z" fill="#6335F0"/>
<path d="M467 95C467.66 95 468.32 95 469 95C469 96.98 469 98.96 469 101C470.98 101 472.96 101 475 101C475 101.66 475 102.32 475 103C472.667 103.042 470.333 103.041 468 103C467 102 467 102 466.938 98.4375C466.958 97.3031 466.979 96.1688 467 95Z" fill="#6335F0"/>
<path d="M254 38C254 38.66 254 39.32 254 40C253.01 40.33 252.02 40.66 251 41C250.196 41.99 249.391 42.98 248.562 44C246 46.9997 245.588 47.3905 242 48C250.219 38 250.219 38 254 38Z" fill="#6335F0"/>
<path d="M480 74C480.33 74 480.66 74 481 74C481 79.28 481 84.56 481 90C480.34 89.67 479.68 89.34 479 89C478.593 86.6784 478.256 84.3431 478 82C478.66 82 479.32 82 480 82C480 79.36 480 76.72 480 74Z" fill="#6335F0"/>
<path d="M52 145C57.28 145 62.56 145 68 145C68 145.33 68 145.66 68 146C67.0358 146.049 66.0716 146.098 65.0781 146.148C63.8148 146.223 62.5516 146.298 61.25 146.375C59.3705 146.479 59.3705 146.479 57.4531 146.586C54.39 146.953 52.5803 147.397 50 149C50.66 147.68 51.32 146.36 52 145Z" fill="#6335F0"/>
<path d="M459 89C459.66 89.33 460.32 89.66 461 90C461 93.63 461 97.26 461 101C459.35 101 457.7 101 456 101C456.495 100.505 456.99 100.01 457.5 99.5C459.67 95.8837 459.209 93.1777 459 89Z" fill="#6335F0"/>
<path d="M238 130C238.99 130 239.98 130 241 130C240.886 131.48 240.759 132.959 240.625 134.438C240.521 135.673 240.521 135.673 240.414 136.934C240.277 137.616 240.141 138.297 240 139C239.01 139.495 239.01 139.495 238 140C238 136.7 238 133.4 238 130Z" fill="#6335F0"/>
<path d="M585 170C585.33 171.98 585.66 173.96 586 176C585.34 176 584.68 176 584 176C583.67 174.35 583.34 172.7 583 171C580.69 171 578.38 171 576 171C576 170.67 576 170.34 576 170C579.378 169.155 581.675 168.892 585 170Z" fill="#6335F0"/>
<path d="M446 177C446.33 177 446.66 177 447 177C448.102 181.409 448.077 185.484 448 190C445.483 186.224 444.737 183.69 445.437 179.188C445.623 178.466 445.809 177.744 446 177Z" fill="#6335F0"/>
<path d="M580 130C580.33 130.99 580.66 131.98 581 133C579.71 134.376 578.373 135.708 577 137C576.34 137 575.68 137 575 137C576.25 133.347 576.671 132.219 580 130Z" fill="#6335F0"/>
<path d="M618 92C620.912 95.288 622.497 97.5989 623 102C622.34 102 621.68 102 621 102C621 100.68 621 99.36 621 98C620.34 98 619.68 98 619 98C618.67 96.02 618.34 94.04 618 92Z" fill="#6335F0"/>
<path d="M604 154C608.752 154.432 610.92 155.328 614 159C611.062 158.625 611.062 158.625 608 158C607.67 157.34 607.34 156.68 607 156C606.01 155.34 605.02 154.68 604 154Z" fill="#6335F0"/>
<path d="M412 100C412 100.66 412 101.32 412 102C409.188 102.625 409.188 102.625 406 103C405.01 102.34 404.02 101.68 403 101C406.153 100.299 408.727 100 412 100Z" fill="#6335F0"/>
<path d="M614 75C614 76.65 614 78.3 614 80C613.01 78.68 612.02 77.36 611 76C613 75 613 75 614 75Z" fill="#6335F0"/>
<path d="M372 99C372.66 99.66 373.32 100.32 374 101C373.34 101 372.68 101 372 101C372 101.66 372 102.32 372 103C371.34 102.67 370.68 102.34 370 102C370.66 101.01 371.32 100.02 372 99Z" fill="#6335F0"/>
<path d="M297 172C297.66 172.66 298.32 173.32 299 174C298.67 174.99 298.34 175.98 298 177C297.67 175.35 297.34 173.7 297 172Z" fill="#6335F0"/>
<path d="M542 141C543.98 141.99 543.98 141.99 546 143C545.01 143 544.02 143 543 143C542.67 142.34 542.34 141.68 542 141Z" fill="#6335F0"/>
<path d="M269 81C269.99 81 270.98 81 272 81C271.67 81.99 271.34 82.98 271 84C270.34 83.01 269.68 82.02 269 81Z" fill="#6335F0"/>
<path d="M660 67C660.33 67 660.66 67 661 67C661 68.98 661 70.96 661 73C660.67 73 660.34 73 660 73C660 71.02 660 69.04 660 67Z" fill="#6335F0"/>
<path d="M496 53C496.33 53 496.66 53 497 53C497 54.65 497 56.3 497 58C496.34 57.01 495.68 56.02 495 55C495.33 54.34 495.66 53.68 496 53Z" fill="#6335F0"/>
<path d="M575 104C576.65 104 578.3 104 580 104C580 104.33 580 104.66 580 105C578.35 105 576.7 105 575 105C575 104.67 575 104.34 575 104Z" fill="#6335F0"/>
<path d="M292 87C292.33 87.99 292.66 88.98 293 90C292.34 90 291.68 90 291 90C291.33 89.01 291.66 88.02 292 87Z" fill="#6335F0"/>
<path d="M594 79C594.99 79.495 594.99 79.495 596 80C596 80.66 596 81.32 596 82C595.34 82 594.68 82 594 82C594 81.01 594 80.02 594 79Z" fill="#6335F0"/>
<path d="M497 77C497.99 77.495 497.99 77.495 499 78C498.67 78.99 498.34 79.98 498 81C497.67 79.68 497.34 78.36 497 77Z" fill="#6335F0"/>
<path d="M564 70C564.66 71.32 565.32 72.64 566 74C565.34 74 564.68 74 564 74C564 72.68 564 71.36 564 70Z" fill="#6335F0"/>
<path d="M718 55C718.99 55.495 718.99 55.495 720 56C719.67 56.99 719.34 57.98 719 59C718.67 57.68 718.34 56.36 718 55Z" fill="#6335F0"/>
<path d="M546 192C546.99 192.33 547.98 192.66 549 193C548.01 193.33 547.02 193.66 546 194C546 193.34 546 192.68 546 192Z" fill="#6335F0"/>
<path d="M525 170C525.99 170.495 525.99 170.495 527 171C526.67 171.66 526.34 172.32 526 173C525.67 172.01 525.34 171.02 525 170Z" fill="#6335F0"/>
<path d="M577 159C577.99 159.33 578.98 159.66 580 160C579.01 160 578.02 160 577 160C577 159.67 577 159.34 577 159Z" fill="#6335F0"/>
<path d="M387 123C387.66 123 388.32 123 389 123C389 123.66 389 124.32 389 125C388.34 125 387.68 125 387 125C387 124.34 387 123.68 387 123Z" fill="#6335F0"/>
<path d="M480 104C484 105 484 105 484 105L480 104Z" fill="#6335F0"/>
<path d="M499 103C499.99 103.495 499.99 103.495 501 104C500.34 104.66 499.68 105.32 499 106C499 105.01 499 104.02 499 103Z" fill="#6335F0"/>
<path d="M660 75C661 79 661 79 661 79L660 75Z" fill="#6335F0"/>
<path d="M545 172C545.66 172 546.32 172 547 172C546.67 172.66 546.34 173.32 546 174C545.67 173.34 545.34 172.68 545 172Z" fill="#6335F0"/>
<path d="M417 167C417.99 167.495 417.99 167.495 419 168C418.01 168.495 418.01 168.495 417 169C417 168.34 417 167.68 417 167Z" fill="#6335F0"/>
<path d="M619 163C619.99 163.495 619.99 163.495 621 164C620.01 164.495 620.01 164.495 619 165C619 164.34 619 163.68 619 163Z" fill="#6335F0"/>
<path d="M602 142C602.33 142.66 602.66 143.32 603 144C602.34 143.67 601.68 143.34 601 143C601.33 142.67 601.66 142.34 602 142Z" fill="#6335F0"/>
<path d="M340 140C340.66 140 341.32 140 342 140C341.67 140.66 341.34 141.32 341 142C340.67 141.34 340.34 140.68 340 140Z" fill="#6335F0"/>
<path d="M613 129C613.66 129.66 614.32 130.32 615 131C614.34 131 613.68 131 613 131C613 130.34 613 129.68 613 129Z" fill="#6335F0"/>
<path d="M48 125C48.66 125.66 49.32 126.32 50 127C49.34 127 48.68 127 48 127C48 126.34 48 125.68 48 125Z" fill="#6335F0"/>
<path d="M614 104C617 105 617 105 617 105L614 104Z" fill="#6335F0"/>
<path d="M583 104C586 105 586 105 586 105L583 104Z" fill="#6335F0"/>
<path d="M474 104C477 105 477 105 477 105L474 104Z" fill="#6335F0"/>
<path d="M251 104C251.99 104.495 251.99 104.495 253 105C252.01 105.495 252.01 105.495 251 106C251 105.34 251 104.68 251 104Z" fill="#6335F0"/>
<path d="M341 101C341.99 101.495 341.99 101.495 343 102C342.01 102.495 342.01 102.495 341 103C341 102.34 341 101.68 341 101Z" fill="#6335F0"/>
<path d="M239 90C239.66 90.66 240.32 91.32 241 92C240.34 92 239.68 92 239 92C239 91.34 239 90.68 239 90Z" fill="#6335F0"/>
<path d="M394 88C394.66 88 395.32 88 396 88C395.67 88.66 395.34 89.32 395 90C394.67 89.34 394.34 88.68 394 88Z" fill="#6335F0"/>
<path d="M335 84C335.33 84.66 335.66 85.32 336 86C335.34 85.67 334.68 85.34 334 85C334.33 84.67 334.66 84.34 335 84Z" fill="#6335F0"/>
<path d="M591 80C591.99 80.495 591.99 80.495 593 81C592.01 81.495 592.01 81.495 591 82C591 81.34 591 80.68 591 80Z" fill="#6335F0"/>
<path d="M588 80C588.66 80 589.32 80 590 80C589.67 80.66 589.34 81.32 589 82C588.67 81.34 588.34 80.68 588 80Z" fill="#6335F0"/>
<path d="M495 58C495.33 58.66 495.66 59.32 496 60C495.34 59.67 494.68 59.34 494 59C494.33 58.67 494.66 58.34 495 58Z" fill="#6335F0"/>
<path d="M700 55C703 56 703 56 703 56L700 55Z" fill="#6335F0"/>
<path d="M707 50C710 51 710 51 710 51L707 50Z" fill="#6335F0"/>
<path d="M596 194C598 195 598 195 598 195L596 194Z" fill="#6335F0"/>
<path d="M355 193C357 194 357 194 357 194L355 193Z" fill="#6335F0"/>
<path d="M543 175C545 176 545 176 545 176L543 175Z" fill="#6335F0"/>
<path d="M602 173C604 174 604 174 604 174L602 173Z" fill="#6335F0"/>
<path d="M580 161C582 162 582 162 582 162L580 161Z" fill="#6335F0"/>
<path d="M126 123C128 124 128 124 128 124L126 123Z" fill="#6335F0"/>
<path d="M655 104C657 105 657 105 657 105L655 104Z" fill="#6335F0"/>
<path d="M647 104C649 105 649 105 649 105L647 104Z" fill="#6335F0"/>
<path d="M611 104C613 105 613 105 613 105L611 104Z" fill="#6335F0"/>
<path d="M560 104C562 105 562 105 562 105L560 104Z" fill="#6335F0"/>
<path d="M535 104C537 105 537 105 537 105L535 104Z" fill="#6335F0"/>
<path d="M470 104C472 105 472 105 472 105L470 104Z" fill="#6335F0"/>
<path d="M455 104C457 105 457 105 457 105L455 104Z" fill="#6335F0"/>
<path d="M406 104C408 105 408 105 408 105L406 104Z" fill="#6335F0"/>
<path d="M257 104C259 105 259 105 259 105L257 104Z" fill="#6335F0"/>
<path d="M310 101C312 102 312 102 312 102L310 101Z" fill="#6335F0"/>
<path d="M244 97C246 98 246 98 246 98L244 97Z" fill="#6335F0"/>
<path d="M487 59C489 60 489 60 489 60L487 59Z" fill="#6335F0"/>
<path d="M700 52C702 53 702 53 702 53L700 52Z" fill="#6335F0"/>
<path d="M484 50C486 51 486 51 486 51L484 50Z" fill="#6335F0"/>
<path d="M522 35C524 36 524 36 524 36L522 35Z" fill="#6335F0"/>
</g>
<defs>
<clipPath id="clip0_1_255">
<rect width="738" height="210" fill="white"/>
</clipPath>
</defs>
</svg>
